<svg width="64" height="64" viewBox="0 0 64 64" fill="none" xmlns="http://www.w3.org/2000/svg">
<circle opacity="0.1" cx="32" cy="32" r="32" fill="#F94230"/>
<path d="M16.776 36.2598C16.5702 36.2598 16.3728 36.3415 16.2273 36.4871C16.0818 36.6326 16 36.83 16 37.0358C16 41.3576 17.7168 45.5024 20.7728 48.5584C23.8288 51.6144 27.9736 53.3312 32.2955 53.3312C36.6173 53.3312 40.7621 51.6144 43.8181 48.5584C46.8741 45.5024 48.5909 41.3576 48.5909 37.0358C48.5909 36.83 48.5092 36.6326 48.3636 36.4871C48.2181 36.3415 48.0207 36.2598 47.8149 36.2598H44.711V33.8364C46.9389 33.3266 48.5909 30.6549 48.5909 27.3361C48.5909 23.8558 44.6691 19.6136 44.5023 19.4351C44.428 19.3604 44.3396 19.301 44.2422 19.2606C44.1449 19.2201 44.0405 19.1993 43.9351 19.1993C43.8296 19.1993 43.7253 19.2201 43.6279 19.2606C43.5306 19.301 43.4422 19.3604 43.3678 19.4351C43.201 19.6136 39.2792 23.8558 39.2792 27.3361C39.2792 30.658 40.9313 33.3266 43.1591 33.8364V36.2598H33.0714V31.5263C36.1753 30.9692 38.5032 27.1173 38.5032 22.2923C38.5032 17.3415 33.1063 11.1749 32.8774 10.9149C32.8025 10.8358 32.7123 10.7728 32.6122 10.7298C32.5122 10.6868 32.4044 10.6646 32.2955 10.6646C32.1865 10.6646 32.0787 10.6868 31.9787 10.7298C31.8786 10.7728 31.7884 10.8358 31.7135 10.9149C31.4846 11.1749 26.0877 17.3415 26.0877 22.2923C26.0877 27.118 28.4156 30.97 31.5195 31.5263V36.2598H21.4318V33.8364C23.6596 33.3266 25.3117 30.6549 25.3117 27.3361C25.3117 23.8558 21.3899 19.6136 21.2231 19.4351C21.1487 19.3604 21.0604 19.301 20.963 19.2606C20.8657 19.2201 20.7613 19.1993 20.6558 19.1993C20.5504 19.1993 20.446 19.2201 20.3487 19.2606C20.2513 19.301 20.163 19.3604 20.0886 19.4351C19.9218 19.6136 16 23.8558 16 27.3361C16 30.658 17.652 33.3266 19.8799 33.8364V36.2598H16.776ZM32.2955 51.7793C31.6109 51.7749 30.9274 51.723 30.25 51.6241L32.7533 47.1234H36.2917C36.6603 47.125 37.0172 46.9949 37.2983 46.7566C37.5795 46.5183 37.7662 46.1875 37.825 45.8237L38.3682 42.5685L45.487 43.5842C44.2679 46.0418 42.3875 48.1108 40.0571 49.5584C37.7268 51.0061 35.0389 51.7752 32.2955 51.7793ZM40.8312 27.3361C40.8312 25.3186 42.7331 22.5964 43.9351 21.1446C45.1371 22.5964 47.039 25.3201 47.039 27.3361C47.039 29.6361 46.0302 31.6295 44.711 32.2069V28.5H43.1591V32.2069C41.8399 31.6295 40.8312 29.6361 40.8312 27.3361ZM27.6396 22.2923C27.6396 18.8167 30.9305 14.3471 32.2955 12.6438C33.6604 14.3471 36.9513 18.8167 36.9513 22.2923C36.9513 26.0581 35.2442 29.2931 33.0714 29.9302V23.8442H31.5195V29.9302C29.3468 29.2931 27.6396 26.0581 27.6396 22.2923ZM26.956 37.8117H47.0188C46.9412 39.2805 46.6427 40.7292 46.1334 42.1091L38.594 41.0328C38.1924 40.9757 37.7843 41.0773 37.4564 41.3163C37.1285 41.5552 36.9067 41.9125 36.838 42.3124L36.2948 45.5715H32.7533C32.4767 45.573 32.2053 45.6473 31.9665 45.7867C31.7276 45.9262 31.5296 46.126 31.3922 46.3661L28.6484 51.3059C27.0998 50.915 25.6255 50.2739 24.2835 49.4079L23.8304 46.6873L26.5137 44.6659C26.5699 44.6236 26.6235 44.578 26.6743 44.5293L27.427 43.7766C27.6003 43.6026 27.7299 43.39 27.805 43.1561C27.8801 42.9223 27.8987 42.674 27.8591 42.4316C27.8196 42.1891 27.7231 41.9596 27.5775 41.7617C27.432 41.5639 27.2416 41.4034 27.0219 41.2935L25.5786 40.5734L26.956 37.8117ZM17.5519 27.3361C17.5519 25.3186 19.4539 22.5964 20.6558 21.1446C21.8578 22.5964 23.7597 25.3201 23.7597 27.3361C23.7597 29.6361 22.751 31.6295 21.4318 32.2069V28.5H19.8799V32.2069C18.5607 31.6295 17.5519 29.6361 17.5519 27.3361ZM25.2217 37.8117L24.1943 39.8727C24.1021 40.0548 24.0467 40.2533 24.0313 40.4569C24.0159 40.6604 24.0408 40.865 24.1046 41.0589C24.1684 41.2528 24.2698 41.4322 24.403 41.5868C24.5363 41.7415 24.6987 41.8683 24.881 41.9601L26.3305 42.6794L25.574 43.4313L22.9062 45.4419C22.6751 45.6105 22.4957 45.8402 22.388 46.1051C22.2802 46.3701 22.2485 46.6598 22.2963 46.9418L22.4747 48.0041C21.0251 46.713 19.8455 45.1476 19.0041 43.3983C18.1626 41.6489 17.6759 39.7502 17.5721 37.8117H25.2217Z" fill="#F94230" stroke="#F94230"/>
</svg>
